<?xml version="1.0" encoding="iso-8859-1"?>
<!-- Generator: Adobe Illustrator 19.0.0, SVG Export Plug-In . SVG Version: 6.00 Build 0)  -->
<svg version="1.1" id="Capa_1" xmlns="http://www.w3.org/2000/svg" xmlns:xlink="http://www.w3.org/1999/xlink" x="0px" y="0px"
	 viewBox="0 0 512 512" style="enable-background:new 0 0 512 512;" xml:space="preserve">
<path style="fill:#839594;" d="M307.986,35.31l53.945,44.138v388.414h-8.828H52.966V512H351.47
	c39.901,0,72.254-32.353,72.254-72.254V35.31H307.986z"/>
<polygon style="fill:#E7ECED;" points="291.31,79.448 291.31,0 291.31,0 17.655,0 17.655,476.69 388.414,476.69 388.414,79.448 
	388.414,79.448 "/>
<polygon style="fill:#AFB6BB;" points="291.31,0 291.31,79.448 388.414,79.448 "/>
<circle style="fill:#DD352E;" cx="361.931" cy="379.586" r="132.414"/>
<g>
	<path style="fill:#FFFFFF;" d="M308.966,423.724c-2.26,0-4.52-0.865-6.241-2.586l-35.31-35.31c-3.452-3.452-3.452-9.031,0-12.482
		l35.31-35.31c3.443-3.452,9.039-3.452,12.482,0c3.452,3.452,3.452,9.031,0,12.482l-29.069,29.069l29.069,29.069
		c3.452,3.452,3.452,9.031,0,12.482C313.485,422.859,311.225,423.724,308.966,423.724z"/>
	<path style="fill:#FFFFFF;" d="M414.897,423.724c-2.26,0-4.52-0.865-6.241-2.586c-3.452-3.452-3.452-9.031,0-12.482l29.069-29.069
		l-29.069-29.069c-3.452-3.452-3.452-9.031,0-12.482c3.443-3.452,9.039-3.452,12.482,0l35.31,35.31
		c3.452,3.452,3.452,9.031,0,12.482l-35.31,35.31C419.416,422.859,417.156,423.724,414.897,423.724z"/>
	<path style="fill:#FFFFFF;" d="M344.276,441.379c-0.856,0-1.73-0.132-2.595-0.397c-4.661-1.43-7.274-6.374-5.844-11.034
		l35.31-114.759c1.43-4.661,6.374-7.283,11.034-5.844c4.661,1.43,7.274,6.374,5.844,11.034l-35.31,114.759
		C351.541,438.943,348.054,441.379,344.276,441.379z"/>
</g>
<path style="fill:#25AE88;" d="M264.828,150.069h-61.793c-4.873,0-8.828-3.955-8.828-8.828s3.955-8.828,8.828-8.828h61.793
	c4.873,0,8.828,3.955,8.828,8.828S269.7,150.069,264.828,150.069z"/>
<path style="fill:#7383BF;" d="M167.724,150.069H61.793c-4.873,0-8.828-3.955-8.828-8.828s3.955-8.828,8.828-8.828h105.931
	c4.873,0,8.828,3.955,8.828,8.828S172.597,150.069,167.724,150.069z"/>
<path style="fill:#556080;" d="M291.31,238.345h-61.793c-4.873,0-8.828-3.955-8.828-8.828s3.955-8.828,8.828-8.828h61.793
	c4.873,0,8.828,3.955,8.828,8.828S296.183,238.345,291.31,238.345z"/>
<path style="fill:#366DB6;" d="M194.207,238.345H61.793c-4.873,0-8.828-3.955-8.828-8.828s3.955-8.828,8.828-8.828h132.414
	c4.873,0,8.828,3.955,8.828,8.828S199.08,238.345,194.207,238.345z"/>
<path style="fill:#F76363;" d="M317.793,150.069h-17.655c-4.873,0-8.828-3.955-8.828-8.828s3.955-8.828,8.828-8.828h17.655
	c4.873,0,8.828,3.955,8.828,8.828S322.666,150.069,317.793,150.069z"/>
<path style="fill:#BE6E41;" d="M185.379,194.207h-61.793c-4.873,0-8.828-3.955-8.828-8.828c0-4.873,3.955-8.828,8.828-8.828h61.793
	c4.873,0,8.828,3.955,8.828,8.828C194.207,190.252,190.252,194.207,185.379,194.207z"/>
<path style="fill:#B34B4D;" d="M317.793,194.207H220.69c-4.873,0-8.828-3.955-8.828-8.828c0-4.873,3.955-8.828,8.828-8.828h97.103
	c4.873,0,8.828,3.955,8.828,8.828C326.621,190.252,322.666,194.207,317.793,194.207z"/>
<path style="fill:#EBBA16;" d="M123.586,105.931H61.793c-4.873,0-8.828-3.955-8.828-8.828s3.955-8.828,8.828-8.828h61.793
	c4.873,0,8.828,3.955,8.828,8.828S128.459,105.931,123.586,105.931z"/>
<path style="fill:#366DB6;" d="M256,105.931h-97.103c-4.873,0-8.828-3.955-8.828-8.828s3.955-8.828,8.828-8.828H256
	c4.873,0,8.828,3.955,8.828,8.828S260.873,105.931,256,105.931z"/>
<path style="fill:#25AE88;" d="M203.034,326.621H61.793c-4.873,0-8.828-3.955-8.828-8.828c0-4.873,3.955-8.828,8.828-8.828h141.241
	c4.873,0,8.828,3.955,8.828,8.828C211.862,322.666,207.907,326.621,203.034,326.621z"/>
<path style="fill:#ED8A19;" d="M123.586,282.483H61.793c-4.873,0-8.828-3.955-8.828-8.828c0-4.873,3.955-8.828,8.828-8.828h61.793
	c4.873,0,8.828,3.955,8.828,8.828C132.414,278.528,128.459,282.483,123.586,282.483z"/>
<path style="fill:#EBBA16;" d="M211.862,282.483h-52.966c-4.873,0-8.828-3.955-8.828-8.828c0-4.873,3.955-8.828,8.828-8.828h52.966
	c4.873,0,8.828,3.955,8.828,8.828C220.69,278.528,216.735,282.483,211.862,282.483z"/>
<path style="fill:#25AE88;" d="M167.724,414.897H61.793c-4.873,0-8.828-3.955-8.828-8.828s3.955-8.828,8.828-8.828h105.931
	c4.873,0,8.828,3.955,8.828,8.828S172.597,414.897,167.724,414.897z"/>
<path style="fill:#DD352E;" d="M123.586,370.759H61.793c-4.873,0-8.828-3.955-8.828-8.828s3.955-8.828,8.828-8.828h61.793
	c4.873,0,8.828,3.955,8.828,8.828S128.459,370.759,123.586,370.759z"/>
<path style="fill:#366DB6;" d="M194.207,370.759h-35.31c-4.873,0-8.828-3.955-8.828-8.828s3.955-8.828,8.828-8.828h35.31
	c4.873,0,8.828,3.955,8.828,8.828S199.08,370.759,194.207,370.759z"/>
<path style="fill:#EA6248;" d="M88.276,194.207H61.793c-4.873,0-8.828-3.955-8.828-8.828c0-4.873,3.955-8.828,8.828-8.828h26.483
	c4.873,0,8.828,3.955,8.828,8.828C97.103,190.252,93.149,194.207,88.276,194.207z"/>
<path style="fill:#ED8A19;" d="M229.517,61.793H123.586c-4.873,0-8.828-3.955-8.828-8.828s3.955-8.828,8.828-8.828h105.931
	c4.873,0,8.828,3.955,8.828,8.828S234.39,61.793,229.517,61.793z"/>
<path style="fill:#DD352E;" d="M88.276,61.793H61.793c-4.873,0-8.828-3.955-8.828-8.828s3.955-8.828,8.828-8.828h26.483
	c4.873,0,8.828,3.955,8.828,8.828S93.149,61.793,88.276,61.793z"/>
<g>
</g>
<g>
</g>
<g>
</g>
<g>
</g>
<g>
</g>
<g>
</g>
<g>
</g>
<g>
</g>
<g>
</g>
<g>
</g>
<g>
</g>
<g>
</g>
<g>
</g>
<g>
</g>
<g>
</g>
</svg>
